<svg width="16" height="16" viewBox="0 0 16 16" fill="none" xmlns="http://www.w3.org/2000/svg">
  <path d="M14.9333 2.66666H1.06667C0.477956 2.66666 0 3.14461 0 3.73333V12.2667C0 12.8554 0.477956 13.3333 1.06667 13.3333H14.9333C15.522 13.3333 16 12.8554 16 12.2667V3.73333C16 3.14461 15.522 2.66666 14.9333 2.66666ZM14.6667 3.2L8 8L1.33333 3.2H14.6667ZM1.33333 12.8V4.352L7.46667 9.06666C7.61466 9.18493 7.80799 9.24842 8 9.24842C8.19201 9.24842 8.38534 9.18493 8.53333 9.06666L14.6667 4.352V12.8H1.33333Z" fill="white"/>
</svg>